HIERARCHY
ROOT Hips
{
	OFFSET 0.000000 0.000000 0.000000
	CHANNELS 6 Xposition Yposition Zposition Zrotation Yrotation Xrotation 
	JOINT LHipJoint
	{
		OFFSET 0.000000 0.000000 0.000000
		CHANNELS 3 Zrotation Yrotation Xrotation
		JOINT LeftUpLeg
		{
			OFFSET 1.363060 -1.794630 0.839290
			CHANNELS 3 Zrotation Yrotation Xrotation
			JOINT LeftLeg
			{
				OFFSET 2.448110 -6.726130 0.000000
				CHANNELS 3 Zrotation Yrotation Xrotation
				JOINT LeftFoot
				{
					OFFSET 2.562200 -7.039590 0.000000
					CHANNELS 3 Zrotation Yrotation Xrotation
					JOINT LeftToeBase
					{
						OFFSET 0.157640 -0.433110 2.322550
						CHANNELS 3 Zrotation Yrotation Xrotation
						End Site
						{
							OFFSET 0.000000 0.000000 0.000000
						}
					}
				}
			}
		}
	}
	JOINT RHipJoint
	{
		OFFSET 0.000000 0.000000 0.000000
		CHANNELS 3 Zrotation Yrotation Xrotation
		JOINT RightUpLeg
		{
			OFFSET -1.305520 -1.794630 0.839290
			CHANNELS 3 Zrotation Yrotation Xrotation
			JOINT RightLeg
			{
				OFFSET -2.542530 -6.985550 0.000000
				CHANNELS 3 Zrotation Yrotation Xrotation
				JOINT RightFoot
				{
					OFFSET -2.568260 -7.056230 0.000000
					CHANNELS 3 Zrotation Yrotation Xrotation
					JOINT RightToeBase
					{
						OFFSET -0.164730 -0.452590 2.363150
						CHANNELS 3 Zrotation Yrotation Xrotation
						End Site
						{
							OFFSET 0.000000 0.000000 0.000000
						}
					}
				}
			}
		}
	}
	JOINT LowerBack
	{
		OFFSET 0.000000 0.000000 0.000000
		CHANNELS 3 Zrotation Yrotation Xrotation
		JOINT Spine
		{
			OFFSET 0.028270 2.035590 -0.193380
			CHANNELS 3 Zrotation Yrotation Xrotation
			JOINT Spine1
			{
				OFFSET 0.056720 2.048850 -0.042750
				CHANNELS 3 Zrotation Yrotation Xrotation
				JOINT Neck
				{
					OFFSET 0.000000 0.000000 0.000000
					CHANNELS 3 Zrotation Yrotation Xrotation
					JOINT Neck1
					{
						OFFSET -0.054170 1.746240 0.172020
						CHANNELS 3 Zrotation Yrotation Xrotation
						JOINT Head
						{
							OFFSET 0.104070 1.761360 -0.123970
							CHANNELS 3 Zrotation Yrotation Xrotation
							End Site
							{
								OFFSET 0.000000 0.000000 0.000000
							}
						}
					}
				}
				JOINT LeftShoulder
				{
					OFFSET 0.000000 0.000000 0.000000
					CHANNELS 3 Zrotation Yrotation Xrotation
					JOINT LeftArm
					{
						OFFSET 3.362410 1.200890 -0.311210
						CHANNELS 3 Zrotation Yrotation Xrotation
						JOINT LeftForeArm
						{
							OFFSET 4.983000 -0.000000 -0.000000
							CHANNELS 3 Zrotation Yrotation Xrotation
							JOINT LeftHand
							{
								OFFSET 3.483560 -0.000000 -0.000000
								CHANNELS 3 Zrotation Yrotation Xrotation
								JOINT LeftFingerBase
								{
									OFFSET 0.000000 0.000000 0.000000
									CHANNELS 3 Zrotation Yrotation Xrotation
									JOINT LeftHandIndex1
									{
										OFFSET 0.715260 -0.000000 -0.000000
										CHANNELS 3 Zrotation Yrotation Xrotation
										End Site
										{
											OFFSET 0.000000 0.000000 0.000000
										}
									}
								}
								JOINT LThumb
								{
									OFFSET 0.000000 0.000000 0.000000
									CHANNELS 3 Zrotation Yrotation Xrotation
									End Site
									{
										OFFSET 0.000000 0.000000 0.000000
									}
								}
							}
						}
					}
				}
				JOINT RightShoulder
				{
					OFFSET 0.000000 0.000000 0.000000
					CHANNELS 3 Zrotation Yrotation Xrotation
					JOINT RightArm
					{
						OFFSET -3.136600 1.374050 -0.404650
						CHANNELS 3 Zrotation Yrotation Xrotation
						JOINT RightForeArm
						{
							OFFSET -5.241900 -0.000000 -0.000000
							CHANNELS 3 Zrotation Yrotation Xrotation
							JOINT RightHand
							{
								OFFSET -3.444170 -0.000000 -0.000000
								CHANNELS 3 Zrotation Yrotation Xrotation
								JOINT RightFingerBase
								{
									OFFSET 0.000000 0.000000 0.000000
									CHANNELS 3 Zrotation Yrotation Xrotation
									JOINT RightHandIndex1
									{
										OFFSET -0.622530 -0.000000 -0.000000
										CHANNELS 3 Zrotation Yrotation Xrotation
										End Site
										{
											OFFSET 0.000000 0.000000 0.000000
										}
									}
								}
								JOINT RThumb
								{
									OFFSET 0.000000 0.000000 0.000000
									CHANNELS 3 Zrotation Yrotation Xrotation
									End Site
									{
										OFFSET 0.000000 0.000000 0.000000
									}
								}
							}
						}
					}
				}
			}
		}
	}
}
MOTION
Frames: 12
Frame Time: 0.008333
0.688637 17.891179 20.577578 1.806736 0.688861 0.764140 -2.019875 5.999387 6.052389 -21.366435 -6.609390 -3.408137 -0.567392 4.685914 20.585241 0.644183 -1.455423 -0.505867 0.021232 0.929149 2.553893 1.137387 -3.718596 2.418441 14.580981 10.839854 -34.375954 -4.812897 -13.008800 41.058155 2.888622 -11.734421 8.160745 -0.000196 -0.051764 0.142282 -2.214188 -1.879325 6.295026 3.569484 -2.383336 3.535330 3.457872 -1.361439 -8.050946 -6.099330 -3.693212 -14.808199 3.941878 -3.988524 19.912074 0.289848 -1.559859 9.604292 -7.230565 2.373820 -1.075253 -76.326001 -5.269736 31.171996 12.845611 -21.836533 -2.626246 -0.559879 -0.935863 -5.301102 28.405225 22.045914 12.198092 -7.125000 0.000000 0.000000 0.009720 55.771000 0.003267 11.369667 -1.890882 -2.542574 74.005860 -0.949578 5.611303 -10.517047 22.263443 -2.545160 1.188759 -0.340924 2.815361 -20.127890 20.086231 -7.688308 7.125000 0.000000 0.000000 4.557893 -8.455179 3.850599
0.681785 17.891509 20.673325 1.807700 0.833159 0.869553 -2.053720 6.026209 6.116193 -21.256578 -6.434750 -3.098878 -0.638875 4.531017 20.163460 0.666946 -1.552479 -0.399326 0.017354 0.803613 2.208843 1.239065 -3.690905 2.356899 14.393120 10.931549 -34.292533 -4.326566 -12.544194 39.181834 3.011265 -12.159361 8.571687 -0.000972 -0.125904 0.345991 -2.257932 -1.937540 6.219925 3.607698 -2.458367 3.554962 3.505663 -1.404567 -7.986992 -6.063307 -3.665535 -14.807513 3.927362 -3.957667 19.823785 0.282385 -1.546942 9.574888 -7.230119 2.358737 -1.070806 -76.221753 -5.652033 31.111491 12.872035 -21.868782 -2.637910 -0.559868 -0.920665 -5.071424 28.257258 21.653345 11.926946 -7.125000 0.000000 0.000000 -0.056940 55.296746 -0.014752 11.370446 -1.896353 -2.547321 74.004359 -0.998713 5.477155 -10.457532 22.172696 -2.516935 1.194125 -0.352456 2.832868 -20.181909 20.276923 -7.783688 7.125000 0.000000 0.000000 4.535564 -8.237131 3.851262
0.672840 17.891905 20.768440 1.752283 0.936225 1.006658 -2.091432 6.052045 6.179520 -21.076255 -6.225267 -2.855497 -0.715964 4.370177 19.712221 0.667276 -1.576568 -0.212251 0.006057 0.474756 1.304738 1.347083 -3.661343 2.290567 14.258075 11.112406 -34.215941 -3.849046 -12.061063 37.297617 3.141511 -12.610378 8.997981 -0.002554 -0.311006 0.854585 -2.263345 -1.974266 6.127043 3.659312 -2.499959 3.554277 3.537685 -1.432942 -7.930345 -5.991323 -3.651880 -14.875082 3.893144 -3.944060 19.802545 0.261542 -1.539204 9.578446 -7.231489 2.346623 -1.066688 -76.094484 -6.045402 31.109100 12.881880 -21.877570 -2.643451 -0.561478 -0.902622 -4.894628 28.164854 21.119965 11.614243 -7.125000 0.000000 0.000000 -0.024800 54.677610 -0.006053 11.370398 -1.900005 -2.547657 74.025286 -1.014836 5.229543 -10.371874 22.038828 -2.477454 1.198850 -0.368396 2.957573 -20.229913 20.490144 -7.885814 7.125000 0.000000 0.000000 4.519239 -7.994018 3.859170
0.667337 17.888094 20.866328 1.839814 1.065974 1.096429 -2.127355 6.073546 6.236316 -21.087732 -6.067508 -2.537183 -0.778560 4.220294 19.317280 0.637047 -1.505360 -0.071992 0.003728 0.049833 0.137003 1.453136 -3.634525 2.227150 13.939435 11.191056 -34.079110 -3.382015 -11.553688 35.373974 3.258513 -13.045181 9.511125 -0.001941 -0.276647 0.760220 -2.354905 -2.016524 6.041915 3.642134 -2.559738 3.540940 3.574035 -1.468660 -7.883192 -5.899662 -3.662834 -14.930126 3.820841 -3.965031 19.869966 0.222812 -1.548017 9.607810 -7.231097 2.335846 -1.065002 -75.924452 -6.364762 31.384449 12.945108 -21.967861 -2.667844 -0.548658 -0.912274 -5.261715 27.961563 21.390475 11.649025 -7.125000 0.000000 0.000000 -0.319825 54.935702 -0.080875 11.373753 -1.904628 -2.543827 74.092916 -1.003361 4.790639 -10.258866 21.858805 -2.432978 1.194867 -0.373500 3.305174 -20.155741 20.369296 -7.812122 7.125000 0.000000 0.000000 4.557959 -8.132495 3.879813
0.662443 17.883253 20.964718 1.960939 1.198099 1.179203 -2.162891 6.093840 6.291369 -21.142968 -5.927460 -2.201792 -0.837556 4.073846 18.937500 0.601367 -1.416136 0.048380 0.003343 -0.370418 -1.017828 1.558824 -3.608563 2.164213 13.575875 11.256658 -33.927253 -2.918780 -11.039503 33.441692 3.373266 -13.477852 10.038872 -0.000971 -0.193915 0.532946 -2.471220 -2.059943 5.956525 3.610227 -2.624021 3.525828 3.614234 -1.506031 -7.836008 -5.810813 -3.676794 -14.969818 3.751467 -3.991836 19.939948 0.184950 -1.559423 9.635383 -7.230095 2.324902 -1.063691 -75.748403 -6.670213 31.698066 13.017194 -22.072195 -2.695452 -0.534872 -0.926244 -5.711642 27.783985 21.780694 11.756341 -7.125000 0.000000 0.000000 -0.616457 55.333651 -0.156178 11.377779 -1.909694 -2.539941 74.170031 -0.994682 4.336393 -10.145817 21.678312 -2.389384 1.189581 -0.376969 3.673469 -20.061444 20.205916 -7.714122 7.125000 0.000000 0.000000 4.606756 -8.320306 3.904644
0.657235 17.875214 21.063003 2.172846 1.298481 1.283521 -2.197689 6.109044 6.339690 -21.303536 -5.889694 -1.825497 -0.884927 3.945091 18.617594 0.567912 -1.321144 0.027988 0.006619 -0.511067 -1.404300 1.664481 -3.586958 2.100557 13.073587 11.394499 -33.726298 -2.478826 -10.496023 31.492204 3.490402 -13.921225 10.549173 -0.000575 -0.011862 0.032711 -2.698603 -2.105125 5.850027 3.552628 -2.702731 3.517666 3.692574 -1.547160 -7.766575 -5.802434 -3.671671 -14.846471 3.806397 -4.011946 19.837784 0.199128 -1.565128 9.581157 -7.225525 2.308816 -1.061443 -75.595614 -6.972217 31.850498 13.077065 -22.164397 -2.719840 -0.542227 -0.930398 -5.944689 28.183156 21.816220 11.970195 -7.125000 0.000000 0.000000 -0.179825 55.459896 -0.045185 11.382362 -1.918063 -2.544934 74.258158 -1.084514 4.130857 -10.095219 21.598224 -2.368304 1.188065 -0.384943 3.787177 -19.996910 20.280124 -7.717115 7.125000 0.000000 0.000000 4.654769 -8.246141 3.952487
0.650651 17.867983 21.159569 2.303792 1.386122 1.403603 -2.233324 6.127802 6.390352 -21.362406 -5.823353 -1.500630 -0.934126 3.819304 18.292767 0.544020 -1.249552 0.011884 0.010736 -0.659744 -1.812937 1.776373 -3.568668 2.036006 12.642412 11.615444 -33.503331 -2.053099 -9.942377 29.565183 3.629169 -14.392199 10.927467 -0.000386 0.064499 -0.177126 -2.857562 -2.145947 5.774718 3.528893 -2.768160 3.504186 3.755257 -1.582420 -7.722988 -5.820920 -3.675978 -14.756298 3.889164 -4.038681 19.726538 0.225057 -1.572891 9.530534 -7.221785 2.296051 -1.060698 -75.455383 -7.234625 31.980288 13.172538 -22.313547 -2.759496 -0.557267 -0.935412 -6.098136 28.845152 21.883048 12.335439 -7.125000 0.000000 0.000000 0.549639 55.681419 0.150743 11.386204 -1.924613 -2.548541 74.326215 -1.169397 3.929578 -10.033237 21.501121 -2.341116 1.188100 -0.398809 3.903672 -19.945847 20.461891 -7.765895 7.125000 0.000000 0.000000 4.702147 -8.052252 4.011121
0.640912 17.862604 21.252193 2.249118 1.444553 1.559826 -2.270879 6.154708 6.446380 -21.188115 -5.691498 -1.293671 -0.987514 3.700320 17.956658 0.542051 -1.231612 0.005615 0.016779 -0.826828 -2.272389 1.902560 -3.557980 1.969403 12.374277 12.026916 -33.229895 -1.659989 -9.365425 27.689670 3.817526 -14.926457 11.003108 -0.000668 -0.101455 0.278823 -2.859650 -2.176771 5.770915 3.582799 -2.803139 3.478513 3.782044 -1.604223 -7.738660 -5.901001 -3.701903 -14.742186 4.035753 -4.080605 19.594472 0.277927 -1.585374 9.488170 -7.219948 2.290902 -1.063399 -75.343945 -7.406253 32.058166 13.349636 -22.593261 -2.834156 -0.589927 -0.942397 -6.069085 30.109724 22.021638 13.047776 -7.125000 0.000000 0.000000 1.950476 56.121383 0.541395 11.388349 -1.926991 -2.548967 74.348257 -1.242936 3.738061 -9.945156 21.365003 -2.299925 1.191688 -0.426183 4.026558 -19.925671 20.890258 -7.919649 7.125000 0.000000 0.000000 4.748069 -7.583876 4.094493
0.631778 17.857708 21.347021 2.238025 1.558099 1.711697 -2.303657 6.184771 6.503220 -21.051340 -5.593267 -1.030512 -1.040358 3.577698 17.618245 0.549376 -1.257395 0.030476 0.018847 -0.886755 -2.437213 2.023326 -3.553467 1.904850 12.031336 12.428745 -32.932870 -1.288354 -8.789480 25.847807 4.029493 -15.488876 10.940917 -0.001975 -0.257859 0.708534 -2.902201 -2.221810 5.758364 3.634477 -2.861242 3.435251 3.835112 -1.635693 -7.760560 -5.957375 -3.720585 -14.750047 4.102082 -4.102429 19.538437 0.304829 -1.593761 9.472979 -7.219083 2.286888 -1.065232 -75.276644 -7.536081 32.101485 13.533000 -22.874845 -2.911746 -0.615312 -0.946805 -6.022659 31.114639 22.116260 13.614095 -7.125000 0.000000 0.000000 3.077743 56.457023 0.868724 11.391397 -1.930438 -2.549421 74.348845 -1.333312 3.443295 -9.843592 21.207035 -2.256084 1.196586 -0.439945 4.268570 -20.004874 21.012605 -8.000317 7.125000 0.000000 0.000000 4.703495 -7.436215 4.069504
0.623173 17.853235 21.443777 2.265065 1.719874 1.859760 -2.332256 6.217597 6.560772 -20.947391 -5.524457 -0.718177 -1.092726 3.451894 17.277815 0.564835 -1.321434 0.082574 0.017435 -0.852920 -2.344238 2.139350 -3.554359 1.842091 11.622937 12.822136 -32.615204 -0.935509 -8.214416 24.035387 4.262120 -16.075938 10.758122 -0.004178 -0.405907 1.115285 -2.980156 -2.279287 5.738158 3.684205 -2.939578 3.376600 3.911174 -1.675622 -7.787910 -5.993006 -3.732929 -14.777134 4.098184 -4.106663 19.548931 0.309009 -1.598562 9.481565 -7.219069 2.283867 -1.066304 -75.247962 -7.629333 32.114565 13.721848 -23.158064 -2.991899 -0.634333 -0.948959 -5.961029 31.892353 22.172408 14.052647 -7.125000 0.000000 0.000000 3.965636 56.701379 1.140645 11.395235 -1.934821 -2.549900 74.330661 -1.438421 3.058188 -9.730229 21.029946 -2.209924 1.202632 -0.441799 4.614816 -20.171032 20.867186 -8.017037 7.125000 0.000000 0.000000 4.579736 -7.569182 3.949698
0.616122 17.845436 21.544810 2.465564 1.949589 1.988156 -2.351401 6.248914 6.615788 -21.029298 -5.509532 -0.287039 -1.142929 3.314961 16.933656 0.594018 -1.454369 0.123940 0.010377 -0.589641 -1.620593 2.232638 -3.557216 1.787586 11.030690 13.102611 -32.308348 -0.607108 -7.649091 22.270350 4.495174 -16.608608 10.387307 -0.002933 -0.317098 0.871240 -3.214943 -2.369118 5.620417 3.675413 -3.075319 3.392246 4.041432 -1.743236 -7.694021 -5.973299 -3.740204 -14.974254 4.049804 -4.090631 19.653204 0.294011 -1.591900 9.549494 -7.220526 2.281335 -1.065666 -75.229607 -7.912823 32.038131 13.828665 -23.308659 -3.036564 -0.636442 -0.948842 -5.930543 32.021394 22.215438 14.142982 -7.125000 0.000000 0.000000 4.104690 56.779167 1.186353 11.397233 -1.932361 -2.547186 74.325922 -1.467933 2.743683 -9.639326 20.880138 -2.169660 1.216971 -0.433976 4.977099 -20.619689 20.559710 -8.083490 7.125000 0.000000 0.000000 4.255320 -7.841823 3.647294
0.609555 17.836604 21.647172 2.719954 2.200413 2.110442 -2.367610 6.279762 6.670015 -21.168947 -5.511347 0.181008 -1.192459 3.174571 16.588339 0.627465 -1.608708 0.161972 0.001565 -0.255078 -0.701012 2.318863 -3.560683 1.735646 10.381324 13.348006 -32.004851 -0.286301 -7.086790 20.520033 4.728362 -17.124379 9.958078 -0.000617 -0.154703 0.425005 -3.498455 -2.469001 5.472374 3.648439 -3.228894 3.430973 4.188526 -1.819450 -7.562466 -5.936398 -3.745904 -15.224200 3.987604 -4.068301 19.786614 0.273055 -1.581676 9.635860 -7.222439 2.278956 -1.064497 -75.214461 -8.255416 31.933887 13.909998 -23.418049 -3.070204 -0.633295 -0.948021 -5.909733 31.948906 22.254393 14.125132 -7.125000 0.000000 0.000000 4.011093 56.805207 1.161782 11.398658 -1.927775 -2.543479 74.325359 -1.473958 2.451114 -9.555400 20.738806 -2.131227 1.233886 -0.423147 5.344365 -21.156111 20.201887 -8.165393 7.125000 0.000000 0.000000 3.868565 -8.157859 3.288160
